<svg id="Layer_2" data-name="Layer 2" xmlns="http://www.w3.org/2000/svg" viewBox="0 0 1008 391.48"><defs><style>.cls-1,.cls-2{fill:#fff;}.cls-1{fill-rule:evenodd;}</style></defs><title>logo_4_star_a_la_izq_ok-02</title><path class="cls-1" d="M380.47,307.44v0.07a0.29,0.29,0,0,0,.07-0.21,0.31,0.31,0,0,0-.11-0.21,0.28,0.28,0,0,0-.25-0.11h-2.56c-0.09,0-.14,0-0.14.07l-10,19.37h-0.18l-9.86-19.34a0.1,0.1,0,0,1,0-.07s0,0-.14,0h-2.56a0.34,0.34,0,0,0-.25.11,0.39,0.39,0,0,0-.07.21,0.29,0.29,0,0,0,.07.21v-0.07l11.18,22a0.29,0.29,0,0,0,.21.07H369a0.28,0.28,0,0,0,.21-0.07Zm-23-.36h0l0,0v0Z"/><path class="cls-1" d="M403.19,316.77q0-3.42-1.5-5a5.67,5.67,0,0,0-4.17-1.57h-6.37a7.37,7.37,0,0,0-2,.28,4.52,4.52,0,0,0-1.67.89,5,5,0,0,0-1.71,4.1V316a0.3,0.3,0,0,0,.32.36h2.06a0.29,0.29,0,0,0,.29-0.36q0-2.74,3.1-2.74h5.8a2.85,2.85,0,0,1,2.1.82,0.2,0.2,0,0,0,.11.07,4.57,4.57,0,0,1,.82,2.67l0,0.46h-8.51a18.22,18.22,0,0,0-3.31.25,4.88,4.88,0,0,0-2.1.85,3.31,3.31,0,0,0-1.07,1.71,10.71,10.71,0,0,0-.29,2.71v1.78q0,5,4.42,5h8.69a8.6,8.6,0,0,0,2.46-.29,2.58,2.58,0,0,0,1.46-1.17,6.08,6.08,0,0,0,.75-2.35q0.21-1.53.32-4v-3.85c0-.21,0-0.44,0-0.68Zm-2.89,6.7q0,3.13-2.74,3.13h-7.3q-2.63,0-2.63-2.39v-1.42a1.92,1.92,0,0,1,.93-2,2.85,2.85,0,0,1,1.71-.36h10.15q0,0.32,0,1.07C400.38,322,400.35,322.63,400.31,323.46Z"/><path class="cls-1" d="M410.21,329.52a0.26,0.26,0,0,0,.25-0.32V302.81a0.26,0.26,0,0,0-.25-0.32h-1.5a0.28,0.28,0,0,0-.32.32V329.2a0.28,0.28,0,0,0,.32.32h1.5Z"/><path class="cls-1" d="M417.51,329.52a0.26,0.26,0,0,0,.25-0.32V302.81a0.26,0.26,0,0,0-.25-0.32H416a0.28,0.28,0,0,0-.32.32V329.2a0.28,0.28,0,0,0,.32.32h1.5Z"/><path class="cls-1" d="M441.19,323.64V321.4q0-.36-0.61-0.36H440a4.13,4.13,0,0,0-.5,0,5.13,5.13,0,0,0-.75.07v1.53a4.75,4.75,0,0,1-.75,3,2.75,2.75,0,0,1-2.28.89h-6.48q-3.45,0-3.45-4.7v-1.82h15.06a0.3,0.3,0,0,0,.32-0.36V317a8.09,8.09,0,0,0-.5-2.88,5.63,5.63,0,0,0-1.42-2.28,6.24,6.24,0,0,0-1.92-1.21,6.1,6.1,0,0,0-2.35-.43h-5.73a5.74,5.74,0,0,0-4.38,2,8.57,8.57,0,0,0-1.71,5.52v4.49q0,7.27,6.16,7.27H436a4.69,4.69,0,0,0,3.6-1.5,4.78,4.78,0,0,0,1.17-1.89A7.41,7.41,0,0,0,441.19,323.64Zm-12.25-10.51h6.3a2.9,2.9,0,0,1,2.31,1.1,4.57,4.57,0,0,1,1.07,2.88H425.8a5,5,0,0,1,.92-2.85A2.71,2.71,0,0,1,428.94,313.14Z"/><path class="cls-1" d="M460,321.86q0,2.71,1.21,3.74a4,4,0,0,0,3.06,1h4.42a3.85,3.85,0,0,0,1.57-.29,4,4,0,0,0,1.21-.86,4.9,4.9,0,0,0,1.18-3.6V317.7a4.74,4.74,0,0,0-1.18-3.49,4.48,4.48,0,0,0-1.25-.89,3.53,3.53,0,0,0-1.53-.32H464.3q-4.27,0-4.27,4.7v4.17Zm-2.56-4.17a8.67,8.67,0,0,1,1.64-5.7,5.46,5.46,0,0,1,4.45-2h5.38a4.66,4.66,0,0,1,3.7,1.42v-8.62a0.26,0.26,0,0,1,.25-0.32h2a0.28,0.28,0,0,1,.32.32v20.26a11.7,11.7,0,0,1-.28,1.6q-0.14.64-.32,1.18a4.48,4.48,0,0,1-.43.89,3.93,3.93,0,0,1-.54.75,4.16,4.16,0,0,1-2.1,1.6,8.27,8.27,0,0,1-2.64.43h-5.38q-6.09,0-6.09-7.66V317.7Z"/><path class="cls-1" d="M498.67,323.64V321.4c0-.24-0.2-0.36-0.61-0.36h-0.57a4.14,4.14,0,0,0-.5,0,5.12,5.12,0,0,0-.75.07v1.53a4.75,4.75,0,0,1-.75,3,2.75,2.75,0,0,1-2.28.89h-6.48q-3.45,0-3.45-4.7v-1.82h15.06a0.3,0.3,0,0,0,.32-0.36V317a8.1,8.1,0,0,0-.5-2.88,5.65,5.65,0,0,0-1.42-2.28,6.24,6.24,0,0,0-1.92-1.21,6.09,6.09,0,0,0-2.35-.43h-5.73a5.74,5.74,0,0,0-4.38,2,8.57,8.57,0,0,0-1.71,5.52v4.49q0,7.27,6.16,7.27h6.7a4.69,4.69,0,0,0,3.6-1.5,4.78,4.78,0,0,0,1.17-1.89A7.42,7.42,0,0,0,498.67,323.64Zm-12.25-10.51h6.3a2.9,2.9,0,0,1,2.31,1.1,4.57,4.57,0,0,1,1.07,2.88H483.28a5,5,0,0,1,.93-2.85A2.7,2.7,0,0,1,486.42,313.14Z"/><path class="cls-1" d="M535.53,329.52a0.27,0.27,0,0,0,.29-0.32v-2.28a0.27,0.27,0,0,0-.29-0.32H519.07v-7.2H535a0.29,0.29,0,0,0,.29-0.36V316.8a0.29,0.29,0,0,0-.29-0.36H519.07v-6.52h16.45a0.29,0.29,0,0,0,.29-0.36v-2.24a0.29,0.29,0,0,0-.29-0.36h-19a0.3,0.3,0,0,0-.32.36V329.2a0.28,0.28,0,0,0,.32.32h19Z"/><path class="cls-1" d="M542,329.52a0.26,0.26,0,0,0,.25-0.32V302.81a0.26,0.26,0,0,0-.25-0.32h-1.5a0.28,0.28,0,0,0-.32.32V329.2a0.28,0.28,0,0,0,.32.32H542Z"/><path class="cls-1" d="M564.27,337.1a0.28,0.28,0,0,0,.32-0.32V317.87q-0.07-.64-0.11-1.17,0-.79-0.11-1.43a5.81,5.81,0,0,0-.18-1.17,6.11,6.11,0,0,0-.39-1.1,7.44,7.44,0,0,0-.68-1.14,4.26,4.26,0,0,0-2.1-1.42,8.27,8.27,0,0,0-2.64-.43H553a5.74,5.74,0,0,0-4.52,1.89,9,9,0,0,0-1.71,5.8v4.17a8.86,8.86,0,0,0,1.71,5.81,5.79,5.79,0,0,0,2,1.39,6.76,6.76,0,0,0,2.56.46h5.41a6.4,6.4,0,0,0,2-.29,4.22,4.22,0,0,0,1.6-.89v8.44a0.27,0.27,0,0,0,.28.32h2Zm-2.21-15.24q0,4.74-3.88,4.74h-5q-3.88,0-3.88-4.74V317.7q0-4.7,3.88-4.7h5q3.88,0,3.88,4.7v4.17Z"/><path class="cls-1" d="M587.66,310.25a0.28,0.28,0,0,1,.32.32v10.79q0,4-1.67,6.05a5.53,5.53,0,0,1-4.59,2.07h-5.24a5.63,5.63,0,0,1-4.66-2.1,9.42,9.42,0,0,1-1.67-5.95V310.57a0.27,0.27,0,0,1,.29-0.32h2a0.3,0.3,0,0,1,.36.32v11.18a5.47,5.47,0,0,0,1,3.53,3.34,3.34,0,0,0,2.64,1.25h5.24a3.27,3.27,0,0,0,2.63-1.25,5.47,5.47,0,0,0,1-3.53V310.57a0.27,0.27,0,0,1,.29-0.32h2Z"/><path class="cls-1" d="M594.82,329.52c0.14,0,.21-0.11.21-0.32v-18.8c0-.21-0.07-0.32-0.21-0.32h-1.57a0.26,0.26,0,0,0-.25.32v18.8a0.26,0.26,0,0,0,.25.32h1.57Zm0-23.65q0.21,0,.21-0.36v-2.71c0-.21-0.07-0.32-0.21-0.32h-1.57a0.26,0.26,0,0,0-.25.32v2.71q0,0.36.25,0.36h1.57Z"/><path class="cls-1" d="M622.21,323.11a0.22,0.22,0,0,0,.25-0.25V321a0.22,0.22,0,0,0-.25-0.25h-9.58a0.24,0.24,0,0,0-.29.25v1.82a0.24,0.24,0,0,0,.29.25h9.58Z"/><path class="cls-1" d="M665.37,307.44v0.07a0.29,0.29,0,0,0,.07-0.21,0.31,0.31,0,0,0-.11-0.21,0.28,0.28,0,0,0-.25-0.11h-2.56c-0.09,0-.14,0-0.14.07l-10,19.37h-0.18l-9.87-19.34a0.1,0.1,0,0,1,0-.07s0,0-.14,0h-2.56a0.34,0.34,0,0,0-.25.11,0.38,0.38,0,0,0-.07.21,0.29,0.29,0,0,0,.07.21v-0.07l11.18,22a0.28,0.28,0,0,0,.21.07h3.17a0.28,0.28,0,0,0,.21-0.07Zm-23-.36h0l0,0v0Z"/><path class="cls-1" d="M671.5,329.52c0.14,0,.21-0.11.21-0.32v-18.8c0-.21-0.07-0.32-0.21-0.32h-1.57a0.26,0.26,0,0,0-.25.32v18.8a0.26,0.26,0,0,0,.25.32h1.57Zm0-23.65q0.21,0,.21-0.36v-2.71c0-.21-0.07-0.32-0.21-0.32h-1.57a0.26,0.26,0,0,0-.25.32v2.71q0,0.36.25,0.36h1.57Z"/><path class="cls-1" d="M694.71,322.36a0.1,0.1,0,0,0-.07,0h-2a0.27,0.27,0,0,0-.29.32v0.07q0,3.88-3.49,3.88h-6.16a2.77,2.77,0,0,1-2.31-1.18,5.15,5.15,0,0,1-.85-3.1v-4.66a6,6,0,0,1,.78-3.38,2.94,2.94,0,0,1,2.56-1.14h6q3.49,0,3.49,3.88v0a0.29,0.29,0,0,0,.29.36h2a0.29,0.29,0,0,0,.29-0.36,7.35,7.35,0,0,0-1.71-5.24,5.8,5.8,0,0,0-4.34-1.6h-6a5.68,5.68,0,0,0-4.34,2,6.22,6.22,0,0,0-1.25,2.35,11,11,0,0,0-.39,3.1v4.66q0,7.19,5.8,7.19h6.16q6.05,0,6.05-6.87V322.5Z"/><path class="cls-1" d="M717.72,310.25a0.28,0.28,0,0,1,.32.32v10.79a9.44,9.44,0,0,1-1.67,6.05,5.53,5.53,0,0,1-4.59,2.07h-5.24a5.63,5.63,0,0,1-4.67-2.1,9.42,9.42,0,0,1-1.67-5.95V310.57a0.27,0.27,0,0,1,.29-0.32h2a0.3,0.3,0,0,1,.36.32v11.18a5.47,5.47,0,0,0,1,3.53,3.34,3.34,0,0,0,2.64,1.25h5.24a3.27,3.27,0,0,0,2.63-1.25,5.47,5.47,0,0,0,1-3.53V310.57a0.27,0.27,0,0,1,.29-0.32h2Z"/><path class="cls-1" d="M741,329.52a0.28,0.28,0,0,0,.32-0.32V318.37a9.38,9.38,0,0,0-1.67-6,5.49,5.49,0,0,0-4.59-2.1h-5.24a5.59,5.59,0,0,0-4.66,2.14,9.33,9.33,0,0,0-1.67,5.95V329.2a0.27,0.27,0,0,0,.29.32h2a0.3,0.3,0,0,0,.36-0.32V318a5.29,5.29,0,0,1,1.07-3.49,3.3,3.3,0,0,1,2.64-1.28h5.24a3.24,3.24,0,0,1,2.63,1.28,5.32,5.32,0,0,1,1,3.49V329.2a0.27,0.27,0,0,0,.29.32h2Z"/><path class="cls-1" d="M764.84,316.77q0-3.42-1.5-5a5.67,5.67,0,0,0-4.17-1.57H752.8a7.38,7.38,0,0,0-2,.28,4.52,4.52,0,0,0-1.67.89,5,5,0,0,0-1.71,4.1V316a0.3,0.3,0,0,0,.32.36h2.07a0.29,0.29,0,0,0,.29-0.36q0-2.74,3.1-2.74H759a2.85,2.85,0,0,1,2.1.82,0.2,0.2,0,0,0,.11.07,4.57,4.57,0,0,1,.82,2.67l0,0.46h-8.51a18.21,18.21,0,0,0-3.31.25,4.88,4.88,0,0,0-2.1.85A3.32,3.32,0,0,0,747,320a10.76,10.76,0,0,0-.29,2.71v1.78q0,5,4.42,5h8.69a8.59,8.59,0,0,0,2.46-.29,2.58,2.58,0,0,0,1.46-1.17,6.08,6.08,0,0,0,.75-2.35q0.21-1.53.32-4v-3.85q0-.32,0-0.68Zm-2.88,6.7q0,3.13-2.74,3.13h-7.3q-2.64,0-2.64-2.39v-1.42a1.92,1.92,0,0,1,.93-2,2.85,2.85,0,0,1,1.71-.36h10.15q0,0.32,0,1.07T762,323.46Z"/><path class="cls-1" d="M792.22,323.11a0.22,0.22,0,0,0,.25-0.25V321a0.22,0.22,0,0,0-.25-0.25h-9.58a0.24,0.24,0,0,0-.29.25v1.82a0.24,0.24,0,0,0,.29.25h9.58Z"/><path class="cls-1" d="M835.81,322.75a0,0,0,0,0,0,0H833.5a0.28,0.28,0,0,0-.32.32v0.11q0,2.21-1.46,2.88a8.75,8.75,0,0,1-3.74.61h-8.3q-4.38,0-5.63-1.42a5.16,5.16,0,0,1-.78-2.14,24.77,24.77,0,0,1-.25-3.88q0-2.17,0-3.56a11.25,11.25,0,0,1,.18-2,4.15,4.15,0,0,1,1.75-3,7.67,7.67,0,0,1,2-.64,18.07,18.07,0,0,1,3.28-.25H828q5.16,0,5.16,3.53v0.07a0.28,0.28,0,0,0,.32.32h2.24a0.27,0.27,0,0,0,.29-0.32v-0.07a5.79,5.79,0,0,0-2-4.84q-2-1.6-6-1.6H820.5q-6,0-8.16,2.14h0q-2.21,2.17-2.21,8.23a47.37,47.37,0,0,0,.32,6.94,7.39,7.39,0,0,0,.93,2.49,6.22,6.22,0,0,0,1.67,1.67,8.27,8.27,0,0,0,2.78,1,25,25,0,0,0,4.06.29H828a10.54,10.54,0,0,0,5.73-1.25Q836,326.63,836,323a0.2,0.2,0,0,0,0-.14Z"/><path class="cls-1" d="M859.14,329.52a0.27,0.27,0,0,0,.29-0.32V317.73a10.39,10.39,0,0,0-.46-3.28,7.26,7.26,0,0,0-1.25-2.46,5.62,5.62,0,0,0-4.52-1.92h-5.8a6.1,6.1,0,0,0-1.89.21,2.54,2.54,0,0,0-1.14.93v-8.41a0.28,0.28,0,0,0-.32-0.32h-2.17a0.26,0.26,0,0,0-.25.32V329.2a0.26,0.26,0,0,0,.25.32H844a0.28,0.28,0,0,0,.32-0.32V317.73a5.77,5.77,0,0,1,1-3.53,3.25,3.25,0,0,1,2.71-1.28h5.2a3.11,3.11,0,0,1,2.6,1.32,5.41,5.41,0,0,1,1,3.49V329.2a0.27,0.27,0,0,0,.28.32h2Z"/><path class="cls-1" d="M865.37,329.52c0.14,0,.21-0.11.21-0.32v-18.8c0-.21-0.07-0.32-0.21-0.32H863.8a0.26,0.26,0,0,0-.25.32v18.8a0.26,0.26,0,0,0,.25.32h1.57Zm0-23.65c0.14,0,.21-0.12.21-0.36v-2.71c0-.21-0.07-0.32-0.21-0.32H863.8a0.26,0.26,0,0,0-.25.32v2.71c0,0.24.08,0.36,0.25,0.36h1.57Z"/><path class="cls-1" d="M872.39,329.52a0.26,0.26,0,0,0,.25-0.32V302.81a0.26,0.26,0,0,0-.25-0.32h-1.5a0.28,0.28,0,0,0-.32.32V329.2a0.28,0.28,0,0,0,.32.32h1.5Z"/><path class="cls-1" d="M896.07,323.64V321.4c0-.24-0.2-0.36-0.61-0.36h-0.57a4.14,4.14,0,0,0-.5,0,5.14,5.14,0,0,0-.75.07v1.53a4.75,4.75,0,0,1-.75,3,2.75,2.75,0,0,1-2.28.89h-6.48q-3.46,0-3.45-4.7v-1.82h15.06a0.3,0.3,0,0,0,.32-0.36V317a8.1,8.1,0,0,0-.5-2.88,5.63,5.63,0,0,0-1.42-2.28,6.25,6.25,0,0,0-1.92-1.21,6.1,6.1,0,0,0-2.35-.43h-5.73a5.74,5.74,0,0,0-4.38,2,8.56,8.56,0,0,0-1.71,5.52v4.49q0,7.27,6.16,7.27h6.7a4.69,4.69,0,0,0,3.6-1.5,4.79,4.79,0,0,0,1.17-1.89A7.44,7.44,0,0,0,896.07,323.64Zm-12.25-10.51h6.3a2.9,2.9,0,0,1,2.31,1.1,4.57,4.57,0,0,1,1.07,2.88H880.68a5,5,0,0,1,.93-2.85A2.71,2.71,0,0,1,883.82,313.14Z"/><polygon class="cls-1" points="358.87 244.8 362.6 244.8 362.6 261.71 376.19 261.71 376.19 244.8 379.95 244.8 379.95 283.73 376.19 283.73 376.19 265 362.6 265 362.6 283.73 358.87 283.73 358.87 244.8"/><path class="cls-1" d="M428.68,256.52a8.77,8.77,0,0,1,7.24,3.82q2.9,3.8,2.9,10.07a20.17,20.17,0,0,1-1.16,6.86,11.16,11.16,0,0,1-3.54,5.13,9,9,0,0,1-13-2,17,17,0,0,1-2.71-9.85,18.05,18.05,0,0,1,1.71-8.15,9.83,9.83,0,0,1,4.17-4.66A10.23,10.23,0,0,1,428.68,256.52Zm0.22,3.29a5.65,5.65,0,0,0-5.19,3,15.9,15.9,0,0,0-1.74,8.06,14.45,14.45,0,0,0,1.71,7.34,5.31,5.31,0,0,0,4.81,3,5.64,5.64,0,0,0,4.81-2.73q1.91-2.76,1.91-8,0-5-1.85-7.79T428.9,259.81Z"/><path class="cls-1" d="M477.91,249.21H481v7.92h5v3.07h-5v18.59a2.43,2.43,0,0,0,.61,1.79,2.53,2.53,0,0,0,1.82.59,5.12,5.12,0,0,0,2.57-.89v3.46a11.16,11.16,0,0,1-3.56.61,4.53,4.53,0,0,1-4.83-5.05V260.2H474v-3.07h3.62Z"/><path class="cls-1" d="M540.57,280.94q-4.2,3.41-8.21,3.41a9.11,9.11,0,0,1-7.6-3.8,16,16,0,0,1-2.9-9.93q0-6.31,3-10.19a9.23,9.23,0,0,1,7.6-3.91,7.86,7.86,0,0,1,6.52,3.15,12.44,12.44,0,0,1,2.46,7.92v1.73h-16v1.37q0,5.19,2.13,7.84a6.35,6.35,0,0,0,5,2.65q4,0,8-4.44v4.19Zm-2.85-14.59a7.32,7.32,0,0,0-1.69-5,4.9,4.9,0,0,0-3.67-1.67,5.84,5.84,0,0,0-4,1.67,9.35,9.35,0,0,0-2.6,5h11.93Z"/><rect class="cls-2" x="579.05" y="244.8" width="3.48" height="38.93"/><path class="cls-1" d="M683.05,277.51c-1.76,2.53-4.31,4.53-7.44,4.53-3.56,0-6.82-2.53-6.82-6.27s3.43-6.22,6.42-7.87Zm5.06,6.22h3.48l-5.28-6.45a17.12,17.12,0,0,0,1.85-7.6h-2.77a11.15,11.15,0,0,1-.92,5.33l-6.87-8.36c3.12-2,6.16-4.27,6.16-8.22s-3.12-6.45-7-6.45-7,2.58-7,6.45c0,3.07,2.16,5.38,3.87,7.65C670.2,268,666,271,666,275.5c0,5.73,4.09,8.89,9.51,8.89a11.85,11.85,0,0,0,9.24-4.8ZM676.8,254.35a3.93,3.93,0,0,1,4.18,4.09c0,3.07-2.64,5-4.84,6.4-1.36-1.69-3.52-4.18-3.52-6.4A3.93,3.93,0,0,1,676.8,254.35Z"/><path class="cls-1" d="M764.37,276.25a28.57,28.57,0,0,0,4.78,3.35,8.56,8.56,0,0,0,3.76.89,7.66,7.66,0,0,0,5.36-2.18,7.33,7.33,0,0,0,2.38-5.66,6.39,6.39,0,0,0-1.55-4.38q-1.57-1.73-6-3.4-8.76-3.35-8.76-10.16a10.1,10.1,0,0,1,3.09-7.45,10.22,10.22,0,0,1,7.46-3.1,12.77,12.77,0,0,1,7.35,2.68v5.05a20.27,20.27,0,0,0-4-3.1A6.81,6.81,0,0,0,775,248a6.44,6.44,0,0,0-4.84,2,6.57,6.57,0,0,0-1.91,4.66,5.46,5.46,0,0,0,1.71,4.24,23.82,23.82,0,0,0,6.27,3.4,23.52,23.52,0,0,1,4.39,2.26,8.75,8.75,0,0,1,2.79,3.24,9.87,9.87,0,0,1,1.13,4.77,11.37,11.37,0,0,1-3.43,8.4,11.14,11.14,0,0,1-8.12,3.41,15.08,15.08,0,0,1-8.62-3.21v-4.88Z"/><path class="cls-1" d="M825.65,296.12h-3.43v-39h3.09l0.33,3.85a11.07,11.07,0,0,1,3.07-3.35,6.41,6.41,0,0,1,3.59-1.12,7.54,7.54,0,0,1,6.69,4,17.78,17.78,0,0,1,2.49,9.68q0,7-3.21,10.58t-7,3.6a6.94,6.94,0,0,1-2.9-.64,9.83,9.83,0,0,1-2.74-1.93v14.34Zm0-17.64a8.33,8.33,0,0,0,2.4,2,5.87,5.87,0,0,0,2.73.67,6,6,0,0,0,5.11-3,13.67,13.67,0,0,0,2-7.79,14.76,14.76,0,0,0-1.77-7.48q-1.74-3.1-4.64-3.1a4.92,4.92,0,0,0-4.2,2.46,9.71,9.71,0,0,0-1.66,5.61v10.63Z"/><path class="cls-1" d="M880.15,258.89q4.23-2.37,7.1-2.37,4.14,0,6.27,2.43a9.72,9.72,0,0,1,2.13,6.58v14a1.31,1.31,0,0,0,1.44,1.54,3,3,0,0,0,1.49-.42v3a6.4,6.4,0,0,1-2.71.61q-3.59,0-3.7-4.27a10.51,10.51,0,0,1-3,3.21,6.56,6.56,0,0,1-3.59,1.06,6.87,6.87,0,0,1-5.28-2.32,8.06,8.06,0,0,1-2.13-5.67,7.56,7.56,0,0,1,2.63-5.89q2.65-2.34,11.38-3.18V265a5,5,0,0,0-1.46-3.71,4.81,4.81,0,0,0-3.59-1.48q-3.07,0-7,3.07v-4Zm12,11.13q-6.83.84-8.65,2.37a4.8,4.8,0,0,0-1.8,3.85,4.9,4.9,0,0,0,1.33,3.52,4.46,4.46,0,0,0,3.34,1.37,5,5,0,0,0,4.14-2.12,8.69,8.69,0,0,0,1.63-5.44V270Z"/><path class="cls-1" d="M737.29,306.52a0.22,0.22,0,0,0,.25-0.25v-1.82a0.22,0.22,0,0,0-.25-0.25h-9.58a0.24,0.24,0,0,0-.29.25v1.82a0.24,0.24,0,0,0,.29.25h9.58Z"/><polygon class="cls-1" points="502.21 217.14 436.78 217.14 436.78 90.61 501.68 90.61 501.68 103.43 451.34 103.43 451.34 142.62 451.34 155.45 451.34 204.32 502.21 204.32 502.21 217.14"/><path class="cls-1" d="M618.3,217.14H600.1l-36.76-57.48H547.19v57.48H532.63V90.61h35.42q17.85,0,28.14,8.79t10.39,24.3A31.33,31.33,0,0,1,599,144.33q-7.55,9-20.78,12.2Zm-71.11-70.31h18.38q11.54,0,18.73-6.28a20.42,20.42,0,0,0,7.19-16q0-21.16-25.57-21.16H547.19v43.4Z"/><path class="cls-1" d="M718.32,217.14h-18.2l-36.76-57.48H647.21v57.48H632.65V90.61h35.42q17.84,0,28.14,8.79t10.39,24.3a31.34,31.34,0,0,1-7.55,20.63q-7.55,9-20.78,12.2Zm-71.12-70.31h18.38q11.54,0,18.73-6.28a20.43,20.43,0,0,0,7.19-16q0-21.16-25.57-21.16H647.21v43.4Z"/><path class="cls-1" d="M818.52,217.14H803.25l-13.85-44.3H748.3l-14,44.3H719.18L760.1,90.61h17.49ZM785.23,160l-16.42-52.37L752.47,160h32.76Z"/><polygon class="cls-1" points="905.05 217.14 836.87 217.14 836.87 90.61 851.42 90.61 851.42 204.32 905.05 204.32 905.05 217.14"/><path class="cls-1" d="M355,159.78a244.58,244.58,0,0,0,44.64,7.5,127.09,127.09,0,0,0,45.13-4.91q28.89-8.32,39.86-23.07c7.32-9.85-2.7-9.37-4.64-5a37.9,37.9,0,0,1-9.12,12.38,38.64,38.64,0,0,1-16.29,8.81c-14.81,4.29-20.4,5.6-35.31,6.63-16.3,1.13-39.52-3.47-55.5-7.46C361,153.95,340.31,155.87,355,159.78Z"/><path class="cls-1" d="M472.74,150.63c7-2.37,12.33-5.39,16.16-9s6.17-7,7-10.1a11.89,11.89,0,0,0-.22-6c-0.55-1.33-2.51-2.45-5.89-3.36a6.13,6.13,0,0,0-6,1.55,21.27,21.27,0,0,0-4.41,5.59,66.07,66.07,0,0,0-3,6c-0.79,1.89-1.23,3-1.31,3.23-0.83,3.09-2,9.42-6.7,11.05S465.8,153,472.74,150.63Z"/><path class="cls-1" d="M139.78,155.81q10.08-19.58,34-24.69c7.08-1.55,16.36-.25,27.78,3.82s24,8.68,37.56,13.81a385.1,385.1,0,0,0,42.09,13.05q21.65,5.35,41,1.66c0.92-1.11,1.14-2,.52-2.6s-1.52-.77-3-0.46c-5.73.94-12.33,0.51-19.7-1.31a227.49,227.49,0,0,1-23.71-7.42c-8.37-3.09-17.15-6.53-26.28-10.19s-18.14-7-27.08-9.79a183.79,183.79,0,0,0-26.36-6.4,65.42,65.42,0,0,0-24.48.35,44,44,0,0,0-9.54,3.41,63,63,0,0,0-10.46,6.25,65.29,65.29,0,0,0-9.73,8.77,35.14,35.14,0,0,0-6.8,10.87c-0.26,1.51.06,2.35,1,2.46s2-.46,3.22-1.6h0Z"/><path class="cls-1" d="M243.36,62.6A30.27,30.27,0,0,1,259,63.71c5.59,1.78,8.76,4.5,9.56,8.2,1.65,7.68,1.72,13.31.27,16.88s-1.75,5.3-.91,5.12c2-.44,3.51-3.39,4.58-8.79a36.28,36.28,0,0,0,.22-14.54c-1.6-7.42-5.37-12.17-11.32-14.34a35.84,35.84,0,0,0-19.63-.93,16.83,16.83,0,0,0-10.34,7c-2.61,3.69-3.15,9.2-1.55,16.6a54.3,54.3,0,0,0,12.61,25.41,82.88,82.88,0,0,0,21.56,17.24,100.38,100.38,0,0,0,25.33,9.93,83.6,83.6,0,0,0,23.79,2.69,3,3,0,0,0,2.81-.36c0.61-.61-0.33-1.21-2.85-1.86-6.62-.33-14.23-2.6-22.87-6.68a161.13,161.13,0,0,1-24.81-14.74A171.36,171.36,0,0,1,245,93.27c-5.69-5.8-9-10.66-9.85-14.64a28.42,28.42,0,0,1-.1-8.92c0.4-3.61,3.17-6,8.28-7.11h0Z"/><path class="cls-1" d="M356.69,152.23c-7.62,0-15.77-1.62-23.33-3a277.16,277.16,0,0,1-50.89-14.73q-21.43-8.3-43-18.21T196.3,99a244.54,244.54,0,0,0-44-10.6,127.09,127.09,0,0,0-45.37,1.75q-29.4,6.28-41.37,20.23c-8,9.32-10.69,19.79-8.21,31.44a31.13,31.13,0,0,0,7.19,14.75,40.55,40.55,0,0,0,11.77,9.06,41.46,41.46,0,0,0,13.61,4.22,36,36,0,0,0,12.24-.15c1.69-.38,1.06-0.84-1.84-1.4A56.3,56.3,0,0,1,89,164.5a63.2,63.2,0,0,1-13.85-8.4c-4.65-3.61-7.66-8.72-9.07-15.25a37.63,37.63,0,0,1-.36-12,36.69,36.69,0,0,1,4.12-13.14,37.9,37.9,0,0,1,10-11.71,38.63,38.63,0,0,1,16.87-7.66A122.2,122.2,0,0,1,141.44,95,253.5,253.5,0,0,1,186,106.39q22.44,7.87,45.2,18.16A451.94,451.94,0,0,0,278,142.63a300.79,300.79,0,0,0,50,12.67c9.62,1.56,20.55,4.36,30.78,4.48C366.56,159.3,365.94,152.25,356.69,152.23Z"/><path class="cls-1" d="M415.27,141.07a12.47,12.47,0,0,0-5.66-2.31c-2.28-.38-3.89,0-4.85,1-2,2.18-3.06,4-3.22,5.36s-0.37,2-.63,1.8c-0.61-.48-0.6-1.68,0-3.6a12.81,12.81,0,0,1,2.62-4.7,7.35,7.35,0,0,1,6.6-2.67,14.71,14.71,0,0,1,7,3,6,6,0,0,1,2.31,4c0.23,1.63-.61,3.49-2.53,5.58a21.48,21.48,0,0,1-9.1,6,35.27,35.27,0,0,1-10.71,1.85,42.93,42.93,0,0,1-10.66-1.13,34.72,34.72,0,0,1-8.79-3.19,1.17,1.17,0,0,1-.91-0.59c-0.1-.3.34-0.33,1.34-0.11a26.53,26.53,0,0,0,9.21,1.76,69.1,69.1,0,0,0,11.38-.5,72.78,72.78,0,0,0,10.31-2c3.06-.89,5.1-1.89,6.14-3a10.12,10.12,0,0,0,1.69-2.84c0.53-1.22,0-2.46-1.57-3.69h0Z"/><polygon class="cls-1" points="414.76 74.47 366.68 74.47 366.68 217.14 348.67 217.14 348.67 74.47 300.37 74.47 300.37 59.62 414.76 59.62 414.76 74.47"/><path class="cls-2" d="M937,217a14.56,14.56,0,1,1,14.56-14.56A14.58,14.58,0,0,1,937,217Zm0-28.12a13.56,13.56,0,1,0,13.56,13.56A13.58,13.58,0,0,0,937,188.91Z"/><path class="cls-1" d="M937.54,201.78a4.36,4.36,0,0,0,2.51-.64,2.59,2.59,0,0,0,.93-2.3,2.46,2.46,0,0,0-1.3-2.43,4.23,4.23,0,0,0-1.85-.34h-5.52v5.7h5.23Zm-7.49-7.65h7.73a7.71,7.71,0,0,1,3.15.56,3.94,3.94,0,0,1,2.35,3.94,4.13,4.13,0,0,1-2.35,4,3.37,3.37,0,0,1,1.47,1,3.72,3.72,0,0,1,.56,2.1L943,208a6.88,6.88,0,0,0,.16,1.42,1.39,1.39,0,0,0,.73,1v0.38h-2.77a2,2,0,0,1-.18-0.56,10.53,10.53,0,0,1-.11-1.32l-0.14-2.78a2.34,2.34,0,0,0-1.22-2.19,5,5,0,0,0-2-.31h-5.15v7.16h-2.26V194.13Z"/><rect class="cls-2" x="354.32" y="295.63" width="551.48" height="2.13"/><polygon class="cls-1" points="56.46 273.74 78.28 289.61 69.96 315.27 91.78 299.4 113.6 315.27 105.28 289.61 127.03 273.74 100.1 273.74 91.78 248.15 83.46 273.74 56.46 273.74"/><polygon class="cls-1" points="128.76 273.74 150.58 289.61 142.26 315.27 164.08 299.4 185.9 315.27 177.58 289.61 199.33 273.74 172.4 273.74 164.08 248.15 155.76 273.74 128.76 273.74"/><polygon class="cls-1" points="201.05 273.74 222.87 289.61 214.56 315.27 236.37 299.4 258.19 315.27 249.88 289.61 271.63 273.74 244.69 273.74 236.37 248.15 228.06 273.74 201.05 273.74"/><polygon class="cls-1" points="273.35 273.74 295.17 289.61 286.85 315.27 308.67 299.4 330.49 315.27 322.17 289.61 343.93 273.74 316.99 273.74 308.67 248.15 300.35 273.74 273.35 273.74"/></svg>